PathFileType	4	(X/Y/Z)	OpenSim_Sub07_CSStiffKnee_Accel.trc
DataRate	CameraRate	NumFrames	NumMarkers	Units	OrigDataRate	OrigDataStartFrame	OrigNumFrames
100	100	37	8	m	100	1684	6734
Frame#	Time	torso_imu_offset_imu	pelvis_imu_offset_imu	tibia_r_imu_offset_imu	femur_r_imu_offset_imu	tibia_l_imu_offset_imu	femur_l_imu_offset_imu	toes_r_imu_offset_imu	toes_l_imu_offset_imu
				X1	Y1	Z1	X2	Y2	Z2	X3	Y3	Z3	X4	Y4	Z4	X5	Y5	Z5	X6	Y6	Z6	X7	Y7	Z7	X8		Y8	Z8	

1684	16.83000000	-8.91041975	0.06434047	6.53568367	10.03200373	-0.05787608	3.10821375	4.84270415	7.60778628	-4.05314172	9.40581126	-2.74955438	-0.30650177	9.57457328	-2.57991099	0.49887699	9.46378699	1.92501820	-1.83208882	33.48210008	10.54696355	26.04920167	5.34443376	0.99416483	10.96639786
1685	16.84000000	-8.70565698	-0.06151299	6.52127813	9.89303806	-0.22725987	3.38843352	3.52824698	8.92494671	-4.40786119	10.10442704	-4.19602784	-0.48584836	9.96242600	-2.85782875	-0.03773185	9.25550927	1.63927811	-1.86321650	11.69822831	8.00239628	22.46502081	5.27150302	0.96427784	10.93795877
1686	16.85000000	-8.67246411	-0.14048538	6.67123404	9.72392774	-0.25973010	3.59005811	2.11338563	9.76329206	-3.37114973	10.99042200	-4.95845638	1.34296740	10.09372275	-2.61194915	-0.12010567	9.11498508	1.30897066	-1.96041335	1.88952934	5.06507931	15.07142112	5.40305758	1.26791221	11.07296853
1687	16.86000000	-8.74437253	-0.18773561	6.73616855	9.48301068	-0.22027457	3.67889277	1.62839388	10.03123354	-2.17026286	11.43361582	-4.98784358	3.09818674	9.99645875	-1.61475962	-0.23483031	9.04770207	1.12984440	-2.20793446	-4.69307136	-0.11211670	9.57990335	4.95795208	1.49680714	11.08794749
1688	16.87000000	-8.75028862	-0.16806893	6.70224898	9.34371979	-0.23595159	3.73441827	1.53088403	9.41075769	-0.46598093	11.04494364	-4.66673447	3.41762959	9.98177568	-1.11530355	-0.31786585	9.46660614	0.84938192	-2.43681205	-5.11276543	-1.30058771	6.79035832	5.36944862	1.48146052	10.94777537
1689	16.88000000	-8.55176163	-0.10534893	6.67387695	9.22914472	-0.20872600	3.70061129	1.70879542	8.09552800	1.17440155	10.42143251	-4.04812242	2.92472555	9.90766434	-1.17128984	-0.15616382	9.54990873	0.48452993	-2.47771347	-2.18566378	-1.09629977	6.60839186	5.31396538	1.30769204	10.97623867
1690	16.89000000	-8.20949834	-0.01528310	6.59813599	9.02763932	-0.18380084	3.64244310	2.55130128	7.40092023	0.76759094	10.01842305	-3.31627932	2.57763046	9.91077684	-1.30766717	0.28868989	9.52464313	0.27995657	-2.35656378	0.21450613	-0.34485927	7.17897683	5.45561686	1.33497349	10.95032800
1691	16.90000000	-7.88299901	0.06650065	6.49907171	8.80818335	-0.10490713	3.64835208	3.09514261	6.76181464	0.20766121	9.91393368	-2.63529956	2.41187190	9.69321936	-0.87628104	0.61788673	9.34930853	0.46620951	-2.10809712	1.68251057	-0.57606935	7.30375877	4.84336403	1.27656358	11.11488599
1692	16.91000000	-7.83892436	0.12837473	6.42458965	8.61249955	0.00231902	3.59172469	2.85172284	4.40052453	0.44782881	9.98135430	-2.26701274	2.54427065	9.47759720	-0.48211339	0.47959491	9.32889121	0.99253344	-2.00461140	2.26499709	-1.24674021	7.00280228	5.30434024	1.23163091	10.87925538
1693	16.92000000	-7.83490400	0.15683671	6.32788726	8.52008163	0.07563505	3.54528331	2.65749888	1.87106143	0.36083837	9.84650089	-2.11632974	3.02003346	9.63369334	-0.44352881	0.24280146	9.23099170	1.05829513	-1.72262898	2.05197955	-1.83525649	6.49043868	5.51211091	1.05940029	10.84154088
1694	16.93000000	-7.87376277	0.13217031	6.34524651	8.58066786	0.06198308	3.43725334	3.57176908	1.25049199	-0.16418761	9.42040261	-2.01354517	3.32097784	9.73324630	-0.63560112	-0.05203737	9.23246346	1.48341703	-1.62819604	1.86375632	-1.87199839	6.46594262	5.45073360	1.29894348	10.80524370
1695	16.94000000	-7.90831333	0.13437314	6.34584699	8.67396253	0.05286607	3.30737015	4.64003079	1.78455892	-0.80866755	8.96224827	-2.09207239	3.24480818	9.69417120	-0.73826710	-0.12916630	9.10617249	1.68384646	-1.50606543	2.88310656	-1.24735164	7.25912693	4.89298250	1.46769412	11.02719379
1696	16.95000000	-7.92961586	0.09357563	6.39666038	8.78292786	0.07026351	3.18614942	5.43182049	3.22803416	-1.25415848	8.47623641	-2.05377254	2.89059199	9.56319655	-0.86225261	-0.16994051	8.99164256	2.05958420	-1.63415855	4.66151196	-0.23582894	8.49547496	5.30070897	1.56051588	10.92001857
1697	16.96000000	-8.00697539	0.04874749	6.48509514	8.86624889	0.03707380	3.05582578	6.73817650	4.40074520	-1.04550467	7.95468518	-1.96698389	2.31037215	9.35596350	-0.78892998	-0.13737610	8.86668519	2.34457359	-1.80105821	6.41925083	0.90212500	9.43803266	5.52532489	1.42739651	10.84325275
1698	16.97000000	-8.13951459	0.09630107	6.55541966	9.12020809	0.07756823	2.94552505	7.47237510	5.23233350	-0.76611585	7.63944917	-1.82968511	1.64217270	9.40778018	-0.73846024	-0.00372488	8.69216086	2.31727184	-1.89259618	7.33122785	1.74239008	9.57509425	5.53083540	1.22705476	10.76062482
1699	16.98000000	-8.24591398	0.11998227	6.64818761	9.22573208	-0.02185247	2.85017455	7.47192071	5.82716689	-0.83184592	7.67701556	-1.80443160	1.15402724	9.46003148	-0.60631762	0.02810696	8.60416158	2.20039852	-2.06429003	6.88399444	1.93520813	8.83340033	5.41849346	1.26402779	10.87802327
1700	16.99000000	-8.37730353	0.11486940	6.72192531	9.29888895	0.08558139	2.81885800	7.48392043	5.86306912	-1.03185447	7.96484151	-1.64738196	0.89182121	9.52241141	-0.79248257	-0.13040968	8.60746175	2.10063496	-2.12249430	6.33637502	1.62172655	7.99237462	5.49754855	1.36329047	10.79217680
1701	17	-8.43800321	0.15272847	6.75045880	9.37060558	0.07918899	2.82344773	7.39101467	5.55445873	-1.42009374	8.20523297	-1.30153768	0.84456181	9.69903767	-1.04282401	-0.07527773	8.81100644	2.64681108	-2.25901887	6.76234635	1.36297167	7.77132185	5.70020881	1.31958763	10.64672738
1702	17.01000000	-8.45255052	0.12018358	6.78786070	9.33206929	0.05176535	2.73868326	6.83327211	5.45714629	-2.04222930	8.25684527	-0.92837917	1.05955933	9.86462495	-1.55000780	-0.08251086	9.07181657	2.46630482	-2.22883249	7.82326228	1.37098776	7.87069271	5.53215802	1.15335540	10.78720541
1703	17.02000000	-8.45771653	0.12510141	6.84048812	9.40291432	0.11465540	2.62577657	6.32496946	5.92741157	-2.01459337	8.24944962	-0.49609070	1.40598276	9.93400529	-1.77208115	0.01293943	9.09419786	2.52868630	-2.38727404	8.58173293	1.54687930	7.74020352	5.50654273	1.23627527	10.91833894
1704	17.03000000	-8.53688205	0.06733731	6.86511368	9.42560499	-0.04573198	2.54361044	6.50321691	6.26417063	-1.88098311	8.36283884	-0.05171542	1.46473443	9.72777682	-1.81921112	0.07029171	9.04394733	2.36271291	-2.38263890	9.16251699	3.13024413	7.30450296	4.95967541	1.33346453	11.12407038
1705	17.04000000	-8.65587166	0.13376446	6.90671111	9.29905857	-0.12322884	2.42015740	6.96774088	6.08523860	-2.97318546	8.43371627	0.01567857	1.25624564	9.85543670	-1.63347967	0.09252006	9.29122771	2.13131033	-2.31079455	9.98966976	6.42557545	7.37476002	5.38026575	1.30686337	10.96147672
1706	17.05000000	-8.54356246	0.11083481	6.80251555	8.85584765	-0.22304198	2.28936313	7.58352420	6.19908594	-3.94859135	7.92108525	-0.35875653	1.32635371	10.21493864	-1.48950227	0.23306413	9.63314628	2.00244011	-2.22270886	12.00921767	6.68247006	8.23760488	5.53150150	1.23570137	10.89773835
1707	17.06000000	-8.33950575	0.01873986	6.73153186	8.61012174	-0.32944239	2.11667280	8.40108059	6.79376154	-4.85838362	6.99482103	-0.97469353	1.64796862	10.19934190	-1.60371637	0.19260569	9.77204129	2.23181581	-2.23180378	14.56574914	5.74037569	8.22731516	5.50733377	1.13956415	10.96729128
1708	17.07000000	-8.23722207	-0.03285174	6.64191393	8.44905922	-0.36466420	1.93309736	9.07336222	7.03002726	-4.62102696	6.01719680	-2.00658649	1.40193908	10.00476710	-1.80193496	0.11247993	9.51587035	2.10521401	-2.01757929	15.95613935	4.82638663	7.36632190	5.06187802	1.16673578	11.07004654
1709	17.08000000	-8.25661181	-0.18917641	6.50465832	8.46678909	-0.39328277	1.80146242	9.20826494	6.54134740	-3.61318087	5.75478858	-3.67863237	0.84109689	9.86206056	-1.58303791	0.25016351	9.25084838	2.34055602	-1.83423728	17.02380959	3.70477336	6.12414897	5.45218679	1.31665167	10.94947737
1710	17.09000000	-8.43160734	-0.30575453	6.54588966	8.70018828	-0.37592193	1.67133361	9.10606311	5.60617626	-2.40718345	6.26936143	-5.77585309	0.57296791	9.92795785	-1.05988837	0.08094692	9.08681417	2.54212390	-1.76827419	18.76116337	1.92134678	5.20700461	5.62022030	1.14219186	10.92841673
1711	17.10000000	-8.57240027	-0.36361541	6.54485394	8.82922988	-0.34374662	1.64488165	8.65023812	4.79998259	-1.29843307	6.87333208	-7.96118793	0.58918946	10.29867198	-0.70294697	0.03350284	8.97291116	2.58899166	-1.47645801	20.18275307	-0.32774133	4.19403163	5.52415244	1.10240069	10.90867251
1712	17.11000000	-8.70040808	-0.39653850	6.55468822	8.95597200	-0.34461212	1.46691325	8.14519484	4.11293197	-1.01037976	7.45999244	-9.77883091	0.26056901	10.35940770	-0.28307637	0.04254594	9.02946558	2.84818561	-1.20598231	19.95403162	-2.11931038	2.69249963	5.15877172	0.95931331	11.19696082
1713	17.12000000	-8.74746412	-0.41052231	6.52777892	9.12718057	-0.35580352	1.38134188	7.74410833	3.46766655	-0.95598411	7.96900420	-10.50487169	-0.42094006	10.42870688	-0.01533737	0.11658356	9.18606119	2.94137842	-1.13438374	18.63989172	-3.13393591	1.07651729	5.05512551	0.93353378	11.21879788
1714	17.13000000	-8.88667704	-0.38585161	6.57475487	9.34198940	-0.46992813	1.24502916	7.63918169	2.85027155	-0.75596788	8.19466934	-9.83407149	-0.96593059	10.62111416	0.20305474	0.02679287	9.38676088	3.26338804	-1.08026069	17.89900964	-3.41842104	-0.20749377	5.59778334	1.22189782	11.06727490
1715	17.14000000	-9.04217930	-0.37135083	6.56902552	9.57541169	-0.54700274	1.05661593	8.46262037	1.77438249	-0.37889982	8.00427153	-8.48939051	-0.80727898	10.94502466	0.37790033	-0.13489446	9.59713201	3.21695867	-1.12527877	17.35172629	-3.24736039	-1.18849492	5.39666925	0.91464292	11.30907139
1716	17.15000000	-9.08916209	-0.32832005	6.53383754	9.75512027	-0.72426033	1.01870392	8.66914916	1.07079033	-0.22504587	7.84623405	-7.12952199	-0.30571572	10.89240962	0.67092078	0.11757601	9.62955126	3.48678297	-1.07208760	16.44762086	-1.72323607	-1.70949520	5.34102177	0.95619314	11.40465419
1717	17.16000000	-9.05455357	-0.27055018	6.62946494	9.79356262	-0.79161482	0.98430348	8.84578596	0.54670595	-0.25500297	7.70253888	-5.89686173	0.07047665	10.48587451	0.96089922	0.03864738	9.18707582	4.02323474	-1.27789548	14.71092753	-2.90485182	-2.94761563	5.00020047	1.07184079	11.50267097
1718	17.17000000	-9.06713617	-0.20489870	6.74513438	10.08213308	-0.62808452	1.39330740	8.79842604	0.19175626	-1.07153229	7.83046570	-4.99915054	-0.05531994	10.41343996	1.35928465	0.28431793	9.18304887	3.64511748	-1.55119971	8.90992978	-10.27151809	-13.77780127	5.24577415	0.95961311	11.53522937
1719	17.18000000	-9.33952125	-0.10680633	6.98371911	10.55996331	-0.38985234	1.88488175	9.35992962	-1.67600042	-1.54062453	8.10768160	-4.55048580	-0.78909210	11.15072018	0.81351107	0.51714533	9.32003321	4.71889282	-2.26316789	12.96739172	-2.50498863	-27.65270563	5.03768324	0.70664493	11.79539725
1720	17.19000000	-9.81458519	0.01284286	7.08690023	10.70387975	-0.18034286	1.40498365	9.20197506	-3.45948624	-0.14605735	6.91802164	-4.78691963	-1.23391893	11.99011489	0.59136998	0.63207675	9.82037787	4.72870754	-2.33275587	24.74642489	9.59133908	-17.56579365	5.10298756	0.52413413	11.88358734
